<svg xmlns="http://www.w3.org/2000/svg" width="21" height="20.999" viewBox="0 0 21 20.999"><defs><style>.a{fill:#fff;}</style></defs><path class="a" d="M71.05,81.849v.028c-.152,0-.264.012-.33.012h-.077a3,3,0,0,1-.09-6l.094,0a2.924,2.924,0,0,1,1.734.569c.721.255,1.449-.1,2.161-1.056s.857-1.7.443-2.232a2.963,2.963,0,0,1-.43-.383.82.82,0,0,1-.069-.077,2.965,2.965,0,0,1,2.135-4.941l.091,0a2.986,2.986,0,0,1,2.9,2.322c.242.747.86,3.707-2.114,7.684-2.752,3.685-5.422,4.082-6.444,4.082Zm-.1-1.5c.444.01,2.779-.052,5.335-3.479,2.61-3.49,2.016-5.938,1.87-6.394a1.478,1.478,0,0,0-2.931.31,1.462,1.462,0,0,0,.388.937l.016.019a1.429,1.429,0,0,0,.271.236.751.751,0,0,1,.151.13c.46.518,1.35,1.965-.312,4.186a3.645,3.645,0,0,1-2.906,1.737,2.884,2.884,0,0,1-1.113-.228.731.731,0,0,1-.175-.1,1.456,1.456,0,0,0-.9-.322,1.492,1.492,0,0,0-1.079.462,1.479,1.479,0,0,0,1.075,2.492s0,0,0,0l.077-.01a1.047,1.047,0,0,1,.233.025ZM74.4,84.967a10.444,10.444,0,0,1-4.069-.818.75.75,0,0,1,.583-1.383,9,9,0,1,0-4.141-3.52.75.75,0,1,1-1.27.8,10.5,10.5,0,1,1,8.9,4.923Z" transform="translate(-63.901 -63.968)"/></svg>