<?xml version="1.0" encoding="UTF-8"?>
<svg width="120px" height="36px" viewBox="0 0 120 36" version="1.1" xmlns="http://www.w3.org/2000/svg" xmlns:xlink="http://www.w3.org/1999/xlink">
    <title>已实名</title>
    <g id="E-我的主页" stroke="none" stroke-width="1" fill="none" fill-rule="evenodd">
        <g id="E1.1-我的/有融资查看权限" transform="translate(-337.000000, -816.000000)">
            <g id="编组-6" transform="translate(24.000000, 786.000000)">
                <g id="标签/无描边浅色" transform="translate(313.000000, 30.000000)">
                    <path d="M5.1277704,0.5 L114.87223,0.5 C116.513668,0.5 117.115921,0.653234454 117.717892,0.975172007 C118.281321,1.27649702 118.723503,1.71867923 119.024828,2.28210802 C119.346766,2.88407891 119.5,3.48633153 119.5,5.1277704 L119.5,5.1277704 L119.5,30.8722296 C119.5,32.5136685 119.346766,33.1159211 119.024828,33.717892 C118.723503,34.2813208 118.281321,34.723503 117.717892,35.024828 C117.115921,35.3467655 116.513668,35.5 114.87223,35.5 L114.87223,35.5 L5.1277704,35.5 C3.48633153,35.5 2.88407891,35.3467655 2.28210802,35.024828 C1.71867923,34.723503 1.27649702,34.2813208 0.975172007,33.717892 C0.653234454,33.1159211 0.5,32.5136685 0.5,30.8722296 L0.5,30.8722296 L0.5,5.1277704 C0.5,3.48633153 0.653234454,2.88407891 0.975172007,2.28210802 C1.27649702,1.71867923 1.71867923,1.27649702 2.28210802,0.975172007 C2.88407891,0.653234454 3.48633153,0.5 5.1277704,0.5 L5.1277704,0.5 Z" id="Rectangle-39" stroke="#1677FF"></path>
                    <text id="已实名" font-family="PingFangSC-Regular, PingFang SC" font-size="20" font-weight="normal" fill="#1677FF">
                        <tspan x="48" y="25">已实名</tspan>
                    </text>
                    <g id="实名认证" transform="translate(12.000000, 4.000000)" fill-rule="nonzero">
                        <rect id="矩形" fill="#000000" opacity="0" x="0" y="0" width="28" height="28"></rect>
                        <path d="M24.0761719,4.8125 L3.92382812,4.8125 C2.72617188,4.8125 1.75,5.78867187 1.75,6.98632812 L1.75,21.0136719 C1.75,22.2113281 2.72617188,23.1875 3.92382812,23.1875 L24.0761719,23.1875 C25.2765625,23.1875 26.25,22.2113281 26.25,21.0136719 L26.25,6.98632812 C26.25,5.78867187 25.2738281,4.8125 24.0761719,4.8125 Z M24.71875,21.0136719 C24.71875,21.3691406 24.4289062,21.65625 24.0761719,21.65625 L3.92382812,21.65625 C3.56835938,21.65625 3.28125,21.3664062 3.28125,21.0136719 L3.28125,6.98632812 C3.28125,6.63085938 3.57109375,6.34375 3.92382812,6.34375 L24.0761719,6.34375 C24.4316406,6.34375 24.71875,6.63359375 24.71875,6.98632812 L24.71875,21.0136719 Z M11.1152344,9.340625 L6.20703125,9.340625 C5.7859375,9.340625 5.44140625,9.68242187 5.44140625,10.10625 C5.44140625,10.5300781 5.7859375,10.871875 6.20703125,10.871875 L11.1152344,10.871875 C11.5390625,10.871875 11.8808594,10.5300781 11.8808594,10.10625 C11.8808594,9.68242187 11.5363281,9.340625 11.1152344,9.340625 Z M11.1152344,13.1414062 L6.20703125,13.1414062 C5.7859375,13.1414062 5.44140625,13.4832031 5.44140625,13.9070312 C5.44140625,14.3308594 5.7859375,14.6726562 6.20703125,14.6726562 L11.1152344,14.6726562 C11.5390625,14.6726562 11.8808594,14.3308594 11.8808594,13.9070312 C11.8808594,13.4859375 11.5363281,13.1414062 11.1152344,13.1414062 Z M11.1152344,16.9394531 L6.20703125,16.9394531 C5.7859375,16.9394531 5.44140625,17.28125 5.44140625,17.7050781 C5.44140625,18.1289062 5.7859375,18.4707031 6.20703125,18.4707031 L11.1152344,18.4707031 C11.5390625,18.4707031 11.8808594,18.1289062 11.8808594,17.7050781 C11.8808594,17.28125 11.5363281,16.9394531 11.1152344,16.9394531 Z M20.1660156,14.2242188 C20.7210937,13.6691406 21.065625,12.9035156 21.065625,12.0585938 C21.065625,10.36875 19.6929687,8.99609375 18.003125,8.99609375 C16.3132813,8.99609375 14.940625,10.36875 14.940625,12.0585938 C14.940625,12.8597656 15.2578125,13.5871094 15.7636719,14.1339844 C14.3007812,14.9023438 13.2890625,16.4199219 13.2890625,18.1863281 C13.2890625,18.6101563 13.6308594,18.9519531 14.0546875,18.9519531 C14.4785156,18.9519531 14.8203125,18.6101563 14.8203125,18.1863281 C14.8203125,16.4964844 16.1957031,15.1238281 17.8828125,15.1238281 C19.5699219,15.1238281 20.9453125,16.4964844 20.9453125,18.1863281 C20.9453125,18.6101563 21.2871094,18.9519531 21.7109375,18.9519531 C22.1347656,18.9519531 22.4765625,18.6101563 22.4765625,18.1863281 C22.4738281,16.4882812 21.5386719,15.0199219 20.1660156,14.2242188 Z M18.0003906,10.5273438 C18.8425781,10.5273438 19.5316406,11.2136719 19.5316406,12.0585938 C19.5316406,12.9035156 18.8425781,13.5898438 18.0003906,13.5898438 C17.1582031,13.5898438 16.4691406,12.9035156 16.4691406,12.0585938 C16.4691406,11.2164062 17.1582031,10.5273438 18.0003906,10.5273438 Z" id="形状" fill="#1677FF"></path>
                    </g>
                </g>
            </g>
        </g>
    </g>
</svg>