<svg xmlns="http://www.w3.org/2000/svg" width="20" height="21.621" viewBox="0 0 20 21.621"><defs><style>.a{fill:#fff;}</style></defs><g transform="translate(-127.978 -95.64)"><path class="a" d="M159.424,275.5a.825.825,0,0,1-.827-.827c0-1.8,2.12-3.094,5.849-3.614v-.249c-2.529-1.938-2.529-5.529-2.529-7.716,0-3.609,2.125-5.765,5.681-5.765h.191c3.556,0,5.681,2.156,5.681,5.765,0,.267,0,.533-.009.809a.827.827,0,0,1-1.654-.044c.009-.258.009-.511.009-.765,0-2.729-1.356-4.111-4.027-4.111H167.6c-2.671,0-4.027,1.382-4.027,4.111,0,2.64.164,5.329,2.147,6.592a.82.82,0,0,1,.382.7V271.8a.828.828,0,0,1-.738.822c-3.32.351-5.112,1.325-5.112,2.058A.831.831,0,0,1,159.424,275.5Z" transform="translate(-29.827 -158.243)"/><path class="a" d="M581.9,736.319a.825.825,0,0,1-.827-.827c0-.738-1.791-1.707-5.112-2.058a.828.828,0,0,1-.742-.822V731.2a.827.827,0,0,1,1.654,0v.68c3.729.516,5.849,1.818,5.849,3.614A.821.821,0,0,1,581.9,736.319Z" transform="translate(-436.353 -619.058)"/><path class="a" d="M514.489,548.339a15.772,15.772,0,0,1-2.009-.12.822.822,0,0,1-.564-.96.831.831,0,0,1,.9-.653c2.062.227,5.209.031,5.761-1.116a.826.826,0,0,1,1.489.716C519.205,548,516.432,548.339,514.489,548.339Z" transform="translate(-374.672 -438.213)"/><path class="a" d="M147.179,109.7a.812.812,0,0,1-.8-.827v-2.889l-1.071-.4a.828.828,0,0,1-.533-.778,7.206,7.206,0,1,0-14.4,0,.833.833,0,0,1-.335.671l-.464.342v3.049a.8.8,0,1,1-1.6,0v-3.471a.833.833,0,0,1,.335-.671l.473-.351a8.786,8.786,0,0,1,17.57-.156l1.088.4a.828.828,0,0,1,.533.778v3.471A.812.812,0,0,1,147.179,109.7Z" transform="translate(0)"/></g></svg>