<svg width="48" height="48" viewBox="0 0 48 48" fill="none" xmlns="http://www.w3.org/2000/svg">
<g id="&#233;&#161;&#185;&#231;&#155;&#174;&#228;&#191;&#161;&#230;&#129;&#175; 2">
<g id="&#233;&#161;&#185;&#231;&#155;&#174;&#228;&#191;&#161;&#230;&#129;&#175;">
<circle id="&#230;&#164;&#173;&#229;&#156;&#134;&#229;&#189;&#162;" cx="24" cy="24" r="24" fill="#E8F1FF" stroke="#1677FF" stroke-dasharray="4 4"/>
<path id="Fill 1" fill-rule="evenodd" clip-rule="evenodd" d="M31.3084 22.7586H24.6878V16.6897C24.6878 16.3101 24.3777 16 23.9981 16C23.6185 16 23.3084 16.3101 23.3084 16.6897V22.7586H16.6897C16.3101 22.7586 16 23.0687 16 23.4484C16 23.828 16.3101 24.1381 16.6897 24.1381H23.3103V31.3103C23.3103 31.6899 23.6203 32 24 32C24.3796 32 24.6897 31.6899 24.6897 31.3103V24.1381H31.3103C31.6899 24.1381 32 23.828 32 23.4484C31.9981 23.0687 31.688 22.7586 31.3084 22.7586Z" fill="#1677FF"/>
</g>
</g>
</svg>
