<svg width="48" height="48" viewBox="0 0 48 48" fill="none" xmlns="http://www.w3.org/2000/svg">
<g id="&#233;&#161;&#185;&#231;&#155;&#174;&#228;&#191;&#161;&#230;&#129;&#175; 2">
<g id="&#233;&#161;&#185;&#231;&#155;&#174;&#228;&#191;&#161;&#230;&#129;&#175;">
<circle id="&#230;&#164;&#173;&#229;&#156;&#134;&#229;&#189;&#162;" opacity="0.1" cx="24" cy="24" r="24" fill="#1677FF"/>
<g id="&#233;&#161;&#181;&#233;&#157;&#162;-1">
<g id="&#229;&#144;&#136;&#229;&#144;&#140;&#231;&#174;&#161;&#231;&#144;&#134;-ContractManage">
<path id="&#229;&#189;&#162;&#231;&#138;&#182;" d="M34.2081 37.5717H13.7716C12.8225 37.5717 12 36.8125 12 35.8001V12.2C12 11.251 12.7592 10.4285 13.7716 10.4285H34.2714C35.2204 10.4285 36.043 11.1877 36.043 12.2V35.8634C35.9797 36.8125 35.2204 37.5717 34.2081 37.5717ZM13.7716 11.7572C13.5184 11.7572 13.3287 11.947 13.3287 12.2V35.8634C13.3287 36.1165 13.5184 36.3063 13.7716 36.3063H34.2714C34.5244 36.3063 34.7143 36.1165 34.7143 35.8634V12.2C34.7143 11.947 34.5244 11.7572 34.2714 11.7572H13.7716Z" fill="#1174FF"/>
<path id="&#232;&#183;&#175;&#229;&#190;&#132;" d="M31.2343 19.4129H20.3517C19.9721 19.4129 19.719 19.0965 19.719 18.7802C19.719 18.4638 20.0353 18.1475 20.3517 18.1475H31.2343C31.614 18.1475 31.867 18.4638 31.867 18.7802C31.867 19.0965 31.614 19.4129 31.2343 19.4129Z" fill="#1174FF"/>
<path id="&#232;&#183;&#175;&#229;&#190;&#132;_2" d="M31.2343 24.2215H20.3517C19.9721 24.2215 19.719 23.9051 19.719 23.5888C19.719 23.2091 20.0353 22.9561 20.3517 22.9561H31.2343C31.614 22.9561 31.867 23.2724 31.867 23.5888C31.867 23.9051 31.614 24.2215 31.2343 24.2215Z" fill="#1174FF"/>
<path id="&#232;&#183;&#175;&#229;&#190;&#132;_3" d="M31.2343 28.9668H20.3517C19.9721 28.9668 19.719 28.6505 19.719 28.3341C19.719 28.0178 20.0353 27.7014 20.3517 27.7014H31.2343C31.614 27.7014 31.867 28.0178 31.867 28.3341C31.867 28.6505 31.614 28.9668 31.2343 28.9668Z" fill="#1174FF"/>
<path id="&#232;&#183;&#175;&#229;&#190;&#132;_4" d="M17.6311 19.4129H16.5555C16.1758 19.4129 15.9228 19.0965 15.9228 18.7802C15.9228 18.4638 16.2391 18.1475 16.5555 18.1475H17.6311C18.0107 18.1475 18.2638 18.4638 18.2638 18.7802C18.2638 19.0965 18.0107 19.4129 17.6311 19.4129Z" fill="#1174FF"/>
<path id="&#232;&#183;&#175;&#229;&#190;&#132;_5" d="M17.6311 24.2215H16.5555C16.1758 24.2215 15.9228 23.9051 15.9228 23.5888C15.9228 23.2091 16.2391 22.9561 16.5555 22.9561H17.6311C18.0107 22.9561 18.2638 23.2724 18.2638 23.5888C18.2638 23.9051 18.0107 24.2215 17.6311 24.2215Z" fill="#1174FF"/>
<path id="&#232;&#183;&#175;&#229;&#190;&#132;_6" d="M17.6311 28.9668H16.5555C16.1758 28.9668 15.9228 28.6505 15.9228 28.3341C15.9228 28.0178 16.2391 27.7014 16.5555 27.7014H17.6311C18.0107 27.7014 18.2638 28.0178 18.2638 28.3341C18.2638 28.6505 18.0107 28.9668 17.6311 28.9668Z" fill="#1174FF"/>
</g>
</g>
</g>
</g>
</svg>
